<?xml version="1.0" encoding="utf-8"?>
<!-- Generator: Adobe Illustrator 21.0.0, SVG Export Plug-In . SVG Version: 6.00 Build 0)  -->
<svg version="1.1" id="Слой_1" xmlns="http://www.w3.org/2000/svg" xmlns:xlink="http://www.w3.org/1999/xlink" x="0px" y="0px"
	 viewBox="0 0 409.6 409.6" style="enable-background:new 0 0 409.6 409.6;" xml:space="preserve">
<style type="text/css">
	.st0{fill:#FFFFFF;}
</style>
<path class="st0" d="M51.2,64V12.8C51.2,5.7,56.9,0,64,0c7.1,0,12.8,5.7,12.8,12.8V64c0,7.1-5.7,12.8-12.8,12.8
	C56.9,76.8,51.2,71.1,51.2,64L51.2,64z M268.8,76.8c7.1,0,12.8-5.7,12.8-12.8V12.8c0-7.1-5.7-12.8-12.8-12.8
	C261.7,0,256,5.7,256,12.8V64C256,71.1,261.7,76.8,268.8,76.8L268.8,76.8z M409.6,307.2c0,56.6-45.9,102.4-102.4,102.4
	c-56.5,0-102.4-45.9-102.4-102.4c0-56.5,45.9-102.4,102.4-102.4C363.8,204.8,409.6,250.7,409.6,307.2L409.6,307.2z M384,307.2
	c0-42.4-34.4-76.8-76.8-76.8c-42.3,0-76.8,34.5-76.8,76.8c0,42.4,34.5,76.8,76.8,76.8C349.6,384,384,349.6,384,307.2L384,307.2z
	 M102.4,153.6H51.2v51.2h51.2V153.6z M51.2,281.6h51.2v-51.2H51.2V281.6z M128,204.8h51.2v-51.2H128V204.8z M128,281.6h51.2v-51.2
	H128V281.6z M25.6,304.7V128h281.6v51.2h25.6V79.4c0-15.6-12.4-28.2-27.7-28.2h-10.7V64c0,14.1-11.5,25.6-25.6,25.6
	c-14.1,0-25.6-11.5-25.6-25.6V51.2H89.6V64c0,14.1-11.5,25.6-25.6,25.6c-14.1,0-25.6-11.5-25.6-25.6V51.2H27.7
	C12.4,51.2,0,63.8,0,79.4v225.3c0,15.5,12.4,28.1,27.7,28.1h151.5v-25.6H27.7C26.6,307.2,25.6,306,25.6,304.7L25.6,304.7z
	 M256,204.8v-51.2h-51.2v51.2H256z M345.6,307.2h-38.4v-38.4c0-7.1-5.7-12.8-12.8-12.8c-7.1,0-12.8,5.7-12.8,12.8V320
	c0,7.1,5.7,12.8,12.8,12.8h51.2c7.1,0,12.8-5.7,12.8-12.8C358.4,312.9,352.7,307.2,345.6,307.2L345.6,307.2z M345.6,307.2"/>
</svg>
