<?xml version="1.0" encoding="utf-8"?>
<!-- Generator: Adobe Illustrator 21.0.0, SVG Export Plug-In . SVG Version: 6.00 Build 0)  -->
<svg version="1.1" id="Слой_1" xmlns="http://www.w3.org/2000/svg" xmlns:xlink="http://www.w3.org/1999/xlink" x="0px" y="0px"
	 viewBox="0 0 325.5 84.3" style="enable-background:new 0 0 325.5 84.3;" xml:space="preserve">
<style type="text/css">
	.st0{fill:#FFFFFF;}
</style>
<path class="st0" d="M77.2,64.4V42.8h13.4l-0.4,4.6h-8.1v3.4c0.6-0.1,1.4-0.2,2.5-0.2c2.1,0,3.8,0.6,5.1,1.8
	c1.3,1.2,1.9,2.8,1.9,4.8c0,2.3-0.7,4-2.2,5.3c-1.5,1.3-3.5,1.9-6.2,1.9c-1.1,0-2.3,0-3.6-0.1C78.3,64.4,77.5,64.4,77.2,64.4z
	 M84.2,55.3c-0.6,0-1.3,0.1-2.1,0.2v4.3c0.9,0.1,1.5,0.2,1.8,0.2c1.8,0,2.7-0.7,2.7-2.2c0-0.7-0.2-1.3-0.6-1.7
	C85.7,55.5,85.1,55.3,84.2,55.3z M100,64.4V42.8h13.2l-0.4,4.6h-7.9v3.8h6.9v4.6h-6.9v3.9h8.2l0.4,4.6H100z M126.3,64.4h-4.9V42.8
	c0.4,0,1.4,0,3.1,0c1.7,0,2.9,0,3.5,0c3.1,0,5.3,0.7,6.7,2c1.4,1.3,2.1,3.1,2.1,5.1c0,2-0.7,3.7-2.2,5.1c-1.5,1.4-3.4,2.1-5.8,2.1
	c-1.1,0-1.9,0-2.4-0.1V64.4z M128.5,47.4c-0.1,0-0.8,0-2.2,0.1v4.9c0.8,0.1,1.5,0.2,2.3,0.2c0.8,0,1.5-0.2,2-0.6
	c0.6-0.4,0.9-1.1,0.9-2C131.5,48.2,130.5,47.4,128.5,47.4z M148.7,64.4h-4.3V42.8h4.9v13.4l9.6-13.4h4.3v21.6h-4.9V51L148.7,64.4z
	 M172.5,64.4V42.8h5l6.7,9.1l6.3-9.1h4.7v21.6h-4.9V50.6l-6,8.4h-0.7l-6-8.3v13.7H172.5z M202.8,53.6c0-3.2,1.1-5.8,3.2-8
	c2.1-2.1,4.9-3.2,8.3-3.2c3.4,0,6.1,1,8.2,3.1c2.1,2,3.2,4.7,3.2,8.1c0,3.2-1.1,5.9-3.3,8c-2.2,2.1-4.9,3.1-8.2,3.1
	c-3.4,0-6.1-1-8.2-3.1C203.8,59.7,202.8,57,202.8,53.6z M208,53.6c0,1.9,0.6,3.4,1.8,4.7c1.2,1.3,2.7,1.9,4.4,1.9
	c2,0,3.5-0.6,4.6-1.8c1.1-1.2,1.6-2.8,1.6-4.7c0-1.9-0.6-3.5-1.8-4.7c-1.2-1.2-2.7-1.8-4.4-1.8c-1.8,0-3.3,0.6-4.5,1.8
	C208.6,50.1,208,51.6,208,53.6z M233.4,64.4V42.8h13.4l-0.4,4.6h-8.1v3.4c0.6-0.1,1.4-0.2,2.5-0.2c2.1,0,3.8,0.6,5.1,1.8
	c1.3,1.2,1.9,2.8,1.9,4.8c0,2.3-0.7,4-2.2,5.3c-1.5,1.3-3.5,1.9-6.2,1.9c-1.1,0-2.3,0-3.6-0.1C234.5,64.4,233.7,64.4,233.4,64.4z
	 M240.4,55.3c-0.6,0-1.3,0.1-2.1,0.2v4.3c0.9,0.1,1.5,0.2,1.8,0.2c1.8,0,2.7-0.7,2.7-2.2c0-0.7-0.2-1.3-0.6-1.7
	S241.2,55.3,240.4,55.3z M260.4,64.4h-4.3V42.8h4.9v13.4l9.6-13.4h4.3v21.6H270V51L260.4,64.4z M296.3,64.4v-17h-4.7l-0.5,4.1
	c-0.3,2.8-0.7,5.1-1.2,6.9c-0.5,1.8-1.1,3.2-1.9,4.1c-0.8,0.9-1.6,1.5-2.5,1.8c-0.9,0.3-2.1,0.3-3.4,0.1l0.1-4.9
	c0.4,0.1,0.8,0.1,1.1,0c0.3-0.1,0.6-0.3,1-0.8c0.4-0.4,0.7-1.1,1-1.9c0.3-0.9,0.5-2.1,0.8-3.7c0.3-1.6,0.5-3.6,0.6-5.9l0.3-4.3h14.3
	v21.6H296.3z M315.4,42.8v6.8c0.7-0.1,1.3-0.1,1.9-0.1c2.7,0,4.8,0.6,6.1,1.9c1.4,1.3,2,3.1,2,5.3c0,2.4-0.8,4.2-2.4,5.6
	c-1.6,1.4-3.9,2.1-6.8,2.1c-0.8,0-1.9,0-3.3,0c-1.3,0-2.2,0-2.5,0V42.8H315.4z M316.9,54.1c-0.3,0-0.8,0.1-1.5,0.2v5.5
	c0.7,0.1,1.2,0.1,1.4,0.1c2.3,0,3.4-1,3.4-3C320.2,55,319.1,54.1,316.9,54.1z M53.7,30.7c-0.7-0.7-1.4-1.3-2.2-1.9
	c-2.6,2.3-5.3,3.9-12.2,9c-3,2.2-5.9,4.1-7.8,5.9c4.9,0.2,9.2,4.4,9.2,9.3c0,5.1-4.1,9.2-9.2,9.2c-5,0-9-4-9.2-8.9h0
	c0-6.8,4.8-10.7,15.8-18c5.5-3.7,11.1-7.4,15.8-12.5C59.9,16.1,63,8.4,63,0H40.7c0,6-4.6,9.6-15.1,16.6C20,20.4,14.2,24.3,9.4,29.6
	C3.2,36.4,0,44.3,0,53.1h0c0,4.2,0.9,8.2,2.5,12c1.6,3.7,3.8,7.1,6.7,10c2.9,2.9,6.2,5.1,10,6.7c3.9,1.6,8,2.5,12.2,2.5
	c4.2,0,8.4-0.8,12.2-2.5c3.7-1.6,7.1-3.8,10-6.7c2.9-2.9,5.1-6.2,6.7-10c1.6-3.9,2.5-8,2.5-12.2c0-4.2-0.8-8.4-2.5-12.2
	C58.8,36.9,56.6,33.6,53.7,30.7z"/>
</svg>
