<?xml version="1.0" encoding="utf-8"?>
<!-- Generator: Adobe Illustrator 21.0.0, SVG Export Plug-In . SVG Version: 6.00 Build 0)  -->
<svg version="1.1" id="Layer_1" xmlns="http://www.w3.org/2000/svg" xmlns:xlink="http://www.w3.org/1999/xlink" x="0px" y="0px"
	 viewBox="0 0 401.5 326.3" style="enable-background:new 0 0 401.5 326.3;" xml:space="preserve">
<style type="text/css">
	.st0{fill:#FFFFFF;}
</style>
<g id="XMLID_33_">
	<g id="XMLID_35_">
		<path id="XMLID_32_" class="st0" d="M126.3,326.3c151.5,0,234.3-125.5,234.3-234.3c0-3.6-0.1-7.1-0.2-10.6
			c16.1-11.6,30.1-26.1,41.1-42.6c-14.8,6.6-30.6,11-47.3,13c17-10.2,30.1-26.3,36.2-45.6c-15.9,9.4-33.5,16.3-52.3,20
			c-15-16-36.4-26-60.1-26c-45.5,0-82.4,36.9-82.4,82.4c0,6.5,0.7,12.7,2.1,18.8C129.3,97.7,68.6,64.9,27.9,15.1
			c-7.1,12.2-11.2,26.3-11.2,41.4c0,28.6,14.5,53.8,36.7,68.6c-13.5-0.4-26.2-4.1-37.3-10.3c0,0.3,0,0.7,0,1.1
			c0,39.9,28.4,73.2,66.1,80.7c-6.9,1.9-14.2,2.9-21.7,2.9c-5.3,0-10.5-0.5-15.5-1.5c10.5,32.7,40.9,56.5,76.9,57.2
			c-28.2,22.1-63.7,35.3-102.3,35.3c-6.6,0-13.2-0.4-19.6-1.1C36.5,312.6,79.7,326.3,126.3,326.3"/>
	</g>
</g>
</svg>
