<?xml version="1.0" encoding="utf-8"?>
<!-- Generator: Adobe Illustrator 21.0.0, SVG Export Plug-In . SVG Version: 6.00 Build 0)  -->
<svg version="1.1" id="Слой_1" xmlns="http://www.w3.org/2000/svg" xmlns:xlink="http://www.w3.org/1999/xlink" x="0px" y="0px"
	 viewBox="0 0 409.6 241.7" style="enable-background:new 0 0 409.6 241.7;" xml:space="preserve">
<style type="text/css">
	.st0{fill:#FFFFFF;}
</style>
<g>
	<path class="st0" d="M275.3,0c-45.4,0-85.6,22.7-109.9,57.3c-17.3-11.1-37.2-17-58-17C48.2,40.3,0,88.5,0,147.7
		c0,38.3,20.6,73.9,53.8,93.1c1,0.6,2.2,0.9,3.4,0.9h100.6c1.2,0,2.3-0.3,3.4-0.9c6.4-3.7,12.4-8,17.9-13c4.3,4.4,8.9,8.6,13.9,12.4
		c1.2,0.9,2.6,1.4,4.1,1.4h156.6c1.5,0,2.9-0.5,4.1-1.4c33-25.7,51.9-64.3,51.9-106C409.6,60.2,349.4,0,275.3,0L275.3,0z
		 M155.9,228.3h-41.7v-20.1c0-3.7-3-6.7-6.7-6.7c-3.7,0-6.7,3-6.7,6.7v20.1H59c-7.3-4.4-13.8-9.7-19.5-15.7l16.3-16.3
		c2.6-2.6,2.6-6.9,0-9.5c-2.6-2.6-6.9-2.6-9.5,0l-15.4,15.4c-11.1-15.7-17.4-34.7-17.4-54.5h20.1c3.7,0,6.7-3,6.7-6.7
		c0-3.7-3-6.7-6.7-6.7H14.4c2.9-19.9,12-37.8,25.2-51.6L53,96.1c1.3,1.3,3,2,4.8,2c1.7,0,3.4-0.7,4.7-2c2.6-2.6,2.6-6.9,0-9.5
		L49.6,73.7C63.9,62.5,81.5,55.3,100.7,54v19.9c0,3.7,3,6.7,6.7,6.7c3.7,0,6.7-3,6.7-6.7V54c15.8,1.1,30.8,6.1,44.1,14.7
		c-10.9,19.4-17.2,41.8-17.2,65.7c0,30.9,10.4,60,29.1,83.5C165.7,221.7,160.9,225.3,155.9,228.3L155.9,228.3z M365.4,214.9
		L346.5,196c-2.6-2.6-6.9-2.6-9.5,0c-2.6,2.6-2.6,6.9,0,9.5l18.9,18.9c-1.5,1.3-3,2.7-4.6,3.9H282v-20.1c0-3.7-3-6.7-6.7-6.7
		c-3.7,0-6.7,3-6.7,6.7v20.1h-69.3c-1.6-1.3-3.1-2.6-4.6-3.9l18.9-18.9c2.6-2.6,2.6-6.9,0-9.5s-6.9-2.6-9.5,0l-18.9,18.9
		c-0.1-0.1-0.2-0.3-0.3-0.4c-0.2-0.4-0.5-0.7-0.9-1c0,0-0.1-0.1-0.1-0.1c-17.5-20.1-27.8-45.4-29.2-72.4h26.7c3.7,0,6.7-3,6.7-6.7
		c0-3.7-3-6.7-6.7-6.7h-26.7c1.6-28.3,12.9-54,30.6-73.8l18.8,18.8c1.3,1.3,3,2,4.7,2s3.4-0.7,4.7-2c2.6-2.6,2.6-6.9,0-9.5
		l-18.8-18.8c19.8-17.8,45.5-29.1,73.8-30.6v26.7c0,3.7,3,6.7,6.7,6.7c3.7,0,6.7-3,6.7-6.7V13.6c28.3,1.6,54,12.9,73.8,30.6
		L337,63.1c-2.6,2.6-2.6,6.9,0,9.5c1.3,1.3,3,2,4.7,2c1.7,0,3.4-0.7,4.7-2l18.8-18.8c17.8,19.8,29.1,45.5,30.6,73.8h-26.7
		c-3.7,0-6.7,3-6.7,6.7c0,3.7,3,6.7,6.7,6.7H396C394.5,168.7,383.7,194.6,365.4,214.9L365.4,214.9z M365.4,214.9"/>
	<path class="st0" d="M312.9,93.4c-1.8-1.8-4.6-2.4-7-1.6c-7.6,2.7-46.2,16.8-54.7,25.3c-5.1,5.1-7.9,11.8-7.9,19
		c0,7.2,2.8,13.9,7.9,19h0c5.1,5.1,11.8,7.9,19,7.9c7.2,0,13.9-2.8,19-7.9c8.5-8.5,22.6-47.1,25.3-54.7
		C315.3,97.9,314.7,95.2,312.9,93.4L312.9,93.4z M279.6,145.6c-2.5,2.5-5.9,3.9-9.5,3.9c-3.6,0-7-1.4-9.5-3.9
		c-2.5-2.5-3.9-5.9-3.9-9.5c0-3.6,1.4-7,3.9-9.5c3.6-3.6,20.4-10.9,36-17C290.6,125.2,283.2,142,279.6,145.6L279.6,145.6z
		 M279.6,145.6"/>
	<path class="st0" d="M120.6,130.5c-6.3-6.3-32.8-16.1-40.8-19c-2.4-0.9-5.2-0.3-7,1.6c-1.8,1.8-2.4,4.6-1.6,7
		c2.9,8,12.6,34.4,19,40.8c4.1,4.1,9.4,6.3,15.2,6.3c5.7,0,11.1-2.2,15.2-6.3c4.1-4.1,6.3-9.5,6.3-15.2
		C126.9,140,124.7,134.6,120.6,130.5L120.6,130.5z M111.1,151.4c-1.5,1.5-3.5,2.4-5.7,2.4c-2.2,0-4.2-0.8-5.7-2.4
		c-2-2-6.3-11.4-10.6-22c10.6,4.3,20,8.6,22,10.6c1.5,1.5,2.4,3.5,2.4,5.7C113.5,147.9,112.7,149.9,111.1,151.4L111.1,151.4z
		 M111.1,151.4"/>
</g>
</svg>
