<?xml version="1.0" encoding="utf-8"?>
<!-- Generator: Adobe Illustrator 21.0.0, SVG Export Plug-In . SVG Version: 6.00 Build 0)  -->
<svg version="1.1" id="Слой_1" xmlns="http://www.w3.org/2000/svg" xmlns:xlink="http://www.w3.org/1999/xlink" x="0px" y="0px"
	 viewBox="0 0 330.8 409.6" style="enable-background:new 0 0 330.8 409.6;" xml:space="preserve">
<style type="text/css">
	.st0{fill:#FFFFFF;}
</style>
<g>
	<path class="st0" d="M256,149.7c41.3,0,74.8-33.6,74.8-74.8S297.3,0,256,0s-74.8,33.6-74.8,74.8c0,13.8,3.7,26.6,10.2,37.7
		c-0.3,0.3-0.6,0.6-0.8,0.9l-84.3,114.9H78.8c-17.4,0-31.6,14.1-31.6,31.5c0,5.8,1.6,11.3,4.4,15.9c-15.7,1.7-28,15.1-28,31.3
		c0,6.7,2.1,13,5.7,18.1c-17.1,5.8-29.4,22-29.4,41v35.4c0,4.4,3.5,7.9,7.9,7.9h259.9c4.3,0,7.9-3.5,7.9-7.9v-35.4
		c0-19-12.3-35.2-29.4-41c3.6-5.1,5.7-11.4,5.7-18.1c0-16.2-12.3-29.6-28-31.3c2.8-4.7,4.4-10.1,4.4-16c0-17.4-14.2-31.5-31.6-31.5
		h-16.7l54.6-81.9C241.5,148.6,248.6,149.7,256,149.7L256,149.7z M256,15.8c32.6,0,59.1,26.5,59.1,59.1c0,32.6-26.5,59.1-59.1,59.1
		s-59.1-26.5-59.1-59.1S223.4,15.8,256,15.8L256,15.8z M259.9,366.3v27.6H15.8v-27.6c0-15.2,12.4-27.6,27.6-27.6h189
		C247.6,338.7,259.9,351.1,259.9,366.3L259.9,366.3z M220.6,291.4c8.7,0,15.7,7.1,15.7,15.8c0,8.7-7,15.8-15.7,15.8H55.1
		c-8.7,0-15.7-7.1-15.7-15.8c0-8.7,7-15.8,15.7-15.8H220.6z M196.9,244.2c8.7,0,15.8,7.1,15.8,15.8c0,8.7-7.1,15.8-15.8,15.8h-118
		c-8.7,0-15.8-7.1-15.8-15.8c0-8.7,7.1-15.8,15.8-15.8H196.9z M161.2,228.4h-35.4l75.3-102.7c5.4,5.8,11.7,10.8,18.7,14.7
		L161.2,228.4z M161.2,228.4"/>
</g>
</svg>
