<?xml version="1.0" encoding="utf-8"?>
<!-- Generator: Adobe Illustrator 21.0.0, SVG Export Plug-In . SVG Version: 6.00 Build 0)  -->
<svg version="1.1" id="Слой_1" xmlns="http://www.w3.org/2000/svg" xmlns:xlink="http://www.w3.org/1999/xlink" x="0px" y="0px"
	 viewBox="0 0 409.6 409.6" style="enable-background:new 0 0 409.6 409.6;" xml:space="preserve">
<style type="text/css">
	.st0{fill:#FFFFFF;}
</style>
<g>
	<path class="st0" d="M204.8,0C91.9,0,0,91.9,0,204.8c0,112.9,91.9,204.8,204.8,204.8c112.9,0,204.8-91.9,204.8-204.8
		C409.6,91.9,317.7,0,204.8,0L204.8,0z M204.8,393.2c-103.9,0-188.4-84.5-188.4-188.4c0-103.9,84.5-188.4,188.4-188.4
		c103.9,0,188.4,84.5,188.4,188.4C393.2,308.7,308.7,393.2,204.8,393.2L204.8,393.2z M204.8,393.2"/>
	<path class="st0" d="M311.3,73.7c-13.6,0-24.6,11-24.6,24.5V172h-24.6V98.2c0-13.5-11-24.5-24.6-24.5c-13.5,0-24.6,11-24.6,24.5
		V172h-24.6V98.2c0-13.5-11-24.5-24.6-24.5c-13.6,0-24.6,11-24.6,24.5V172h-24.6v-41c0-13.5-11-24.5-24.6-24.5
		c-13.6,0-24.6,11-24.6,24.5v90.2c0,4.5,3.7,8.2,8.2,8.2h65.5v82c0,13.5,11,24.5,24.6,24.5c13.6,0,24.6-11,24.6-24.5v-82H213v82
		c0,13.5,11,24.5,24.6,24.5c13.6,0,24.6-11,24.6-24.5v-82h24.6v82c0,13.5,11,24.5,24.6,24.5c13.6,0,24.6-11,24.6-24.5V98.2
		C335.9,84.7,324.8,73.7,311.3,73.7L311.3,73.7z M319.5,311.4c0,4.6-3.6,8.1-8.2,8.1c-4.5,0-8.2-3.6-8.2-8.1v-90.2
		c0-4.5-3.7-8.2-8.2-8.2h-41c-4.5,0-8.2,3.7-8.2,8.2v90.2c0,4.6-3.6,8.1-8.2,8.1c-4.5,0-8.2-3.6-8.2-8.1v-90.2
		c0-4.5-3.7-8.2-8.2-8.2h-41c-4.5,0-8.2,3.7-8.2,8.2v90.2c0,4.6-3.6,8.1-8.2,8.1c-4.5,0-8.2-3.6-8.2-8.1v-90.2
		c0-4.5-3.7-8.2-8.2-8.2H81.9v-82c0-4.6,3.6-8.1,8.2-8.1c4.5,0,8.2,3.6,8.2,8.1v49.2c0,4.5,3.7,8.2,8.2,8.2h41
		c4.5,0,8.2-3.7,8.2-8.2v-82c0-4.6,3.6-8.1,8.2-8.1c4.5,0,8.2,3.6,8.2,8.1v82c0,4.5,3.7,8.2,8.2,8.2h41c4.5,0,8.2-3.7,8.2-8.2v-82
		c0-4.6,3.6-8.1,8.2-8.1c4.5,0,8.2,3.6,8.2,8.1v82c0,4.5,3.7,8.2,8.2,8.2h41c4.5,0,8.2-3.7,8.2-8.2v-82c0-4.6,3.6-8.1,8.2-8.1
		c4.5,0,8.2,3.6,8.2,8.1V311.4z M319.5,311.4"/>
</g>
</svg>
