<?xml version="1.0" encoding="utf-8"?>
<!-- Generator: Adobe Illustrator 21.0.0, SVG Export Plug-In . SVG Version: 6.00 Build 0)  -->
<svg version="1.1" id="Слой_1" xmlns="http://www.w3.org/2000/svg" xmlns:xlink="http://www.w3.org/1999/xlink" x="0px" y="0px"
	 viewBox="0 0 409.9 298.8" style="enable-background:new 0 0 409.9 298.8;" xml:space="preserve">
<style type="text/css">
	.st0{clip-path:url(#SVGID_2_);fill:#FFFFFF;}
	.st1{fill:#FFFFFF;}
</style>
<g>
	<g>
		<defs>
			<rect id="SVGID_1_" width="409.9" height="298.8"/>
		</defs>
		<use xlink:href="#SVGID_1_"  style="overflow:visible;fill:#FFFFFF;"/>
		<clipPath id="SVGID_2_">
			<use xlink:href="#SVGID_1_"  style="overflow:visible;"/>
		</clipPath>
		<path class="st0" d="M195.5-0.1h-93.1C45.9-0.1,0,45.9,0,102.3v93.1c0,56.5,45.9,102.4,102.4,102.4h93.1c5.1,0,9.3-4.2,9.3-9.3
			V9.3C204.8,4.1,200.6-0.1,195.5-0.1L195.5-0.1z M186.2,279.2h-83.8c-46.2,0-83.8-37.6-83.8-83.8v-93.1c0-46.2,37.6-83.8,83.8-83.8
			h83.8V279.2z M186.2,279.2"/>
	</g>
	<path class="st1" d="M381.7,18.6h-121c-15.4,0-27.9,12.5-27.9,27.9c0,15.4,12.5,27.9,27.9,27.9h121c15.4,0,27.9-12.5,27.9-27.9
		C409.6,31.1,397.1,18.6,381.7,18.6L381.7,18.6z M381.7,55.8h-121c-5.2,0-9.3-4.1-9.3-9.3c0-5.1,4.2-9.3,9.3-9.3h121
		c5.2,0,9.3,4.1,9.3,9.3C391,51.6,386.8,55.8,381.7,55.8L381.7,55.8z M381.7,55.8"/>
	<path class="st1" d="M381.7,223.4h-121c-15.4,0-27.9,12.5-27.9,27.9c0,15.4,12.5,27.9,27.9,27.9h121c15.4,0,27.9-12.5,27.9-27.9
		C409.6,235.9,397.1,223.4,381.7,223.4L381.7,223.4z M381.7,260.6h-121c-5.2,0-9.3-4.1-9.3-9.3c0-5.1,4.2-9.3,9.3-9.3h121
		c5.2,0,9.3,4.1,9.3,9.3C391,256.4,386.8,260.6,381.7,260.6L381.7,260.6z M381.7,260.6"/>
	<path class="st1" d="M381.7,121h-121c-15.4,0-27.9,12.5-27.9,27.9c0,15.4,12.5,27.9,27.9,27.9h121c15.4,0,27.9-12.5,27.9-27.9
		C409.6,133.5,397.1,121,381.7,121L381.7,121z M381.7,158.2h-121c-5.2,0-9.3-4.1-9.3-9.3c0-5.1,4.2-9.3,9.3-9.3h121
		c5.2,0,9.3,4.1,9.3,9.3C391,154,386.8,158.2,381.7,158.2L381.7,158.2z M381.7,158.2"/>
</g>
</svg>
