<?xml version="1.0" encoding="utf-8"?>
<!-- Generator: Adobe Illustrator 21.0.0, SVG Export Plug-In . SVG Version: 6.00 Build 0)  -->
<svg version="1.1" id="Слой_1" xmlns="http://www.w3.org/2000/svg" xmlns:xlink="http://www.w3.org/1999/xlink" x="0px" y="0px"
	 viewBox="0 0 62.9 63.9" style="enable-background:new 0 0 62.9 63.9;" xml:space="preserve">
<style type="text/css">
	.st0{clip-path:url(#SVGID_2_);}
	.st1{fill:#FFFFFF;}
</style>
<g>
	<g>
		<defs>
			<rect id="SVGID_1_" width="62.9" height="63.9"/>
		</defs>
		<use xlink:href="#SVGID_1_"  style="overflow:visible;fill:#FFFFFF;"/>
		<clipPath id="SVGID_2_">
			<use xlink:href="#SVGID_1_"  style="overflow:visible;"/>
		</clipPath>
		<g class="st0">
			<path class="st1" d="M14.1,19.2l9.2,18.1l9.1-17.9c1.8-2.1,2.9-4.8,2.9-7.7c0-6.5-5.3-11.9-11.9-11.9S11.4,5.2,11.4,11.7
				C11.4,14.6,12.4,17.2,14.1,19.2L14.1,19.2z M23.3,4.4c4,0,7.3,3.3,7.3,7.3c0,4-3.3,7.3-7.3,7.3c-4,0-7.3-3.3-7.3-7.3
				C16,7.7,19.3,4.4,23.3,4.4z"/>
			<path class="st1" d="M59.6,40.7l2.7-21.1l-19.2-7.3L37,15.3c-0.2,0.9-0.5,1.8-0.8,2.7l4.6-2.2l-1.9,20.4l0.1,1.1l-14,2.1
				l-1.2,2.3l15.4-2.3l1.8,18.1l2.1-0.2l-1.8-18.2l0.2,0l16.1,2l0-0.3l2.4,20.4l-16.7-3.9l-21.8,4.1l-0.2,0l2-18.6l0-0.1L23.1,42
				l-2.7-5.3l0.4,3.3l-0.5,0.1L4.8,37.7L4.9,37L2.5,18.2l10.9,4.6L12.5,21c-0.3-0.4-0.6-0.8-0.8-1.2L0,14.9L2.8,37l-0.1,0.4l0,0
				l-0.3,2l0.1,0L0.1,59.6l21.3,4l21.7-4.1l19.2,4.4L59.6,40.7z M41.4,37L41,37l-0.1-0.8l2-21.5l0.2-0.1L60,21l-2.3,18L41.4,37z
				 M19.2,61L2.4,57.9l2.2-18.1l15.8,2.4l0.7-0.1l0.1,0.7L19.2,61z"/>
			<polygon class="st1" points="23.8,41.7 23.1,41.8 23.1,42 23.4,42.5 			"/>
		</g>
	</g>
</g>
</svg>
