<?xml version="1.0" encoding="utf-8"?>
<!-- Generator: Adobe Illustrator 21.0.0, SVG Export Plug-In . SVG Version: 6.00 Build 0)  -->
<svg version="1.1" id="Слой_1" xmlns="http://www.w3.org/2000/svg" xmlns:xlink="http://www.w3.org/1999/xlink" x="0px" y="0px"
	 viewBox="0 0 409.6 385.5" style="enable-background:new 0 0 409.6 385.5;" xml:space="preserve">
<style type="text/css">
	.st0{fill:#FFFFFF;}
</style>
<g>
	<path class="st0" d="M345.3,88.3c-15.7,0-30.1,5.7-41.3,15.1L91.1,24.6c-0.4-0.1-0.7-0.2-1.1-0.3C81.7,9.8,66.1,0,48.2,0
		C21.6,0,0,21.6,0,48.2C0,66.1,9.8,81.7,24.3,90c0.1,0.4,0.2,0.7,0.3,1.1l56.2,152.6c0.2,0.4,0.4,0.8,0.6,1.2
		c-10.8,14.6-17.1,32.7-17.1,52.2c0,48.7,39.6,88.3,88.3,88.3c48.7,0,88.3-39.6,88.3-88.3c0-6.4-0.7-12.6-2-18.6l87-63.3
		c0.5-0.3,0.9-0.7,1.2-1.1c5.8,1.7,11.8,2.6,18.1,2.6c35.4,0,64.3-28.8,64.3-64.2C409.6,117.2,380.8,88.3,345.3,88.3L345.3,88.3z
		 M96.2,43.6l196.2,72.7c-3.7,5.4-6.6,11.4-8.6,17.9L93.2,65.5c2.1-5.4,3.2-11.2,3.2-17.3C96.4,46.6,96.3,45.1,96.2,43.6L96.2,43.6z
		 M281.2,150.2c0,0.8-0.1,1.6-0.1,2.4c0,6.3,0.9,12.3,2.6,18.1l-78.9,55.2c-14.6-10.8-32.7-17.1-52.2-17.1c-3.5,0-6.9,0.2-10.3,0.6
		l-49.4-127L281.2,150.2z M16.1,48.2c0-17.7,14.4-32.1,32.1-32.1c17.7,0,32.1,14.4,32.1,32.1c0,17.7-14.4,32.1-32.1,32.1
		C30.5,80.3,16.1,65.9,16.1,48.2L16.1,48.2z M43.6,96.1c1.5,0.1,3.1,0.2,4.6,0.2c10.9,0,21-3.6,29.1-9.8l49.1,126.2
		c-12.3,3.8-23.5,10.3-32.9,18.8L43.6,96.1z M152.6,369.4c-39.9,0-72.3-32.4-72.3-72.3c0-39.9,32.4-72.3,72.3-72.3
		c39.9,0,72.3,32.4,72.3,72.3C224.9,337,192.5,369.4,152.6,369.4L152.6,369.4z M233.8,262.5c-4.1-9.5-9.8-18.1-16.7-25.6l73.2-51.2
		c5.1,8.4,12.1,15.6,20.3,20.9L233.8,262.5z M345.3,200.8c-26.6,0-48.2-21.6-48.2-48.2c0-26.6,21.6-48.2,48.2-48.2
		c26.6,0,48.2,21.6,48.2,48.2C393.5,179.2,371.9,200.8,345.3,200.8L345.3,200.8z M345.3,200.8"/>
</g>
</svg>
