<?xml version="1.0" encoding="utf-8"?>
<!-- Generator: Adobe Illustrator 21.0.0, SVG Export Plug-In . SVG Version: 6.00 Build 0)  -->
<svg version="1.1" id="Слой_1" xmlns="http://www.w3.org/2000/svg" xmlns:xlink="http://www.w3.org/1999/xlink" x="0px" y="0px"
	 viewBox="0 0 409.6 409.6" style="enable-background:new 0 0 409.6 409.6;" xml:space="preserve">
<style type="text/css">
	.st0{fill:#FFFFFF;}
</style>
<g>
	<path class="st0" d="M204.8,42.4c-89.6,0-162.4,72.9-162.4,162.4c0,89.6,72.9,162.4,162.4,162.4c89.6,0,162.4-72.9,162.4-162.4
		C367.2,115.2,294.4,42.4,204.8,42.4L204.8,42.4z M204.8,353.1c-81.8,0-148.3-66.5-148.3-148.3C56.5,123,123,56.5,204.8,56.5
		c81.8,0,148.3,66.5,148.3,148.3C353.1,286.6,286.6,353.1,204.8,353.1L204.8,353.1z M204.8,353.1"/>
	<path class="st0" d="M204.8,0C91.9,0,0,91.9,0,204.8c0,112.9,91.9,204.8,204.8,204.8s204.8-91.9,204.8-204.8
		C409.6,91.9,317.7,0,204.8,0L204.8,0z M204.8,395.5c-105.1,0-190.7-85.5-190.7-190.7c0-105.1,85.5-190.7,190.7-190.7
		c105.1,0,190.7,85.5,190.7,190.7C395.5,309.9,309.9,395.5,204.8,395.5L204.8,395.5z M204.8,395.5"/>
	<path class="st0" d="M293.2,169.6c-2.2-7.5-5.2-13.7-9-18.6c-3.8-4.9-8.3-8.5-13.4-10.9c-5.2-2.4-10.7-3.6-16.6-3.6
		c-6,0-11.5,1.2-16.6,3.6c-5.1,2.4-9.6,6-13.4,10.9c-3.8,4.9-6.8,11.1-8.9,18.6c-2.2,7.5-3.2,16.3-3.2,26.5c0,10.2,1.1,19,3.2,26.4
		c2.2,7.4,5.1,13.6,8.9,18.5c3.8,4.9,8.2,8.5,13.4,10.9c5.1,2.4,10.7,3.6,16.6,3.6c5.9,0,11.4-1.2,16.6-3.6c5.2-2.4,9.6-6,13.4-10.9
		c3.8-4.9,6.8-11,9-18.5c2.2-7.4,3.3-16.3,3.3-26.4C296.5,185.9,295.4,177.1,293.2,169.6L293.2,169.6z M279.3,218.4
		c-1.5,6-3.5,10.9-6,14.5c-2.5,3.7-5.4,6.3-8.7,7.9c-3.3,1.6-6.7,2.4-10.3,2.4c-3.6,0-7-0.8-10.3-2.4c-3.3-1.6-6.2-4.2-8.7-7.9
		c-2.5-3.7-4.5-8.5-6-14.5c-1.5-6-2.2-13.5-2.2-22.3c0-8.9,0.7-16.3,2.2-22.4c1.5-6,3.5-10.9,6-14.6c2.5-3.7,5.4-6.3,8.7-7.9
		c3.3-1.6,6.7-2.4,10.3-2.4c3.6,0,7,0.8,10.3,2.4c3.3,1.6,6.2,4.2,8.7,7.9c2.5,3.7,4.5,8.5,6,14.6c1.5,6,2.2,13.5,2.2,22.4
		C281.5,205,280.8,212.4,279.3,218.4L279.3,218.4z M279.3,218.4"/>
	<path class="st0" d="M197.5,202.9c-1.8-4.3-4.3-7.9-7.5-10.9c-3.1-2.9-6.8-5.2-11-6.7s-8.6-2.3-13.2-2.3c-3.9,0-7.5,0.5-10.9,1.6
		c-3.4,1.1-6.4,2.5-9.2,4.4l40.4-51.1h-12.8c-1.7,0-3.3,0.3-4.6,1c-1.4,0.7-2.4,1.5-3.2,2.5L136,181.1c-4.9,6.6-8.5,12.8-10.8,18.5
		c-2.3,5.7-3.4,11.2-3.4,16.2c0,6.1,0.9,11.5,2.7,16.4c1.8,4.9,4.4,9.1,7.8,12.5c3.4,3.4,7.4,6.1,12.1,8c4.7,1.9,10,2.8,15.9,2.8
		c5.9,0,11.3-1,16.2-2.9c4.9-1.9,9.1-4.6,12.6-8c3.5-3.4,6.2-7.4,8.2-12c1.9-4.6,2.9-9.6,2.9-14.9
		C200.2,212.1,199.3,207.2,197.5,202.9L197.5,202.9z M183.9,228.6c-1.2,3-3,5.7-5.2,7.9c-2.2,2.2-4.9,4-8.1,5.2
		c-3.1,1.2-6.7,1.9-10.6,1.9c-3.8,0-7.3-0.6-10.3-1.8c-3-1.2-5.6-2.9-7.6-5.2c-2.1-2.2-3.7-4.9-4.8-8c-1.1-3.1-1.6-6.5-1.6-10.2
		c0-3.2,0.6-6.3,1.7-9.2c1.2-2.9,2.8-5.6,5-7.8c2.2-2.2,4.9-4,8-5.4c3.1-1.3,6.7-2,10.6-2c3.6,0,7,0.6,10,1.7c3,1.1,5.6,2.8,7.8,4.9
		c2.2,2.1,3.8,4.7,5,7.8c1.2,3.1,1.8,6.5,1.8,10.3C185.7,222.2,185.1,225.5,183.9,228.6L183.9,228.6z M183.9,228.6"/>
</g>
</svg>
