<?xml version="1.0" encoding="utf-8"?>
<!-- Generator: Adobe Illustrator 21.0.0, SVG Export Plug-In . SVG Version: 6.00 Build 0)  -->
<svg version="1.1" id="Слой_1" xmlns="http://www.w3.org/2000/svg" xmlns:xlink="http://www.w3.org/1999/xlink" x="0px" y="0px"
	 viewBox="0 0 409.6 409.6" style="enable-background:new 0 0 409.6 409.6;" xml:space="preserve">
<style type="text/css">
	.st0{fill:#FFFFFF;}
</style>
<g>
	<path class="st0" d="M204.8,0C91.9,0,0,91.9,0,204.8s91.9,204.8,204.8,204.8s204.8-91.9,204.8-204.8S317.7,0,204.8,0L204.8,0z
		 M204.8,395.5c-105.1,0-190.7-85.5-190.7-190.7c0-105.1,85.5-190.7,190.7-190.7c105.1,0,190.7,85.5,190.7,190.7
		C395.5,309.9,309.9,395.5,204.8,395.5L204.8,395.5z M204.8,395.5"/>
	<path class="st0" d="M204.8,42.4c-89.6,0-162.4,72.9-162.4,162.4c0,52.5,25.1,99.3,63.8,129c0.5,1.7,1.6,3.2,3.2,4.2
		c1.2,0.7,2.6,1,4,1c26.1,17.8,57.6,28.3,91.5,28.3c33.9,0,65.4-10.4,91.5-28.3c0.2,0,0.3,0,0.5,0c1.2,0,2.5-0.3,3.6-1
		c1.7-1,2.8-2.6,3.3-4.4c38.7-29.7,63.6-76.4,63.6-128.8C367.2,115.2,294.4,42.4,204.8,42.4L204.8,42.4z M204.8,56.5
		c49,0,92.5,23.9,119.5,60.6c-23.6-4.2-70-11.1-119.5-11.1s-95.9,6.9-119.5,11.1C112.3,80.4,155.8,56.5,204.8,56.5L204.8,56.5z
		 M56.5,204.8c0-4.7,0.2-9.3,0.7-13.8c13.6,2.9,43.7,13.2,48.7,31.9c3.7,13.9-7.1,32.2-31.2,53C63.1,254.7,56.5,230.5,56.5,204.8
		L56.5,204.8z M204.8,353.1c-30,0-58-9-81.4-24.4c12.1-18.4,47.7-67.4,81.5-67.4c33.8,0,69.3,48.9,81.4,67.3
		C262.9,344.1,234.9,353.1,204.8,353.1L204.8,353.1z M297.7,320.3c-13.6-20.6-52.3-73.1-92.9-73.1c-40.6,0-79.3,52.6-92.9,73.2
		c-11.5-9.2-21.6-20.1-29.9-32.3c0.1,0,0.1-0.1,0.2-0.1c30-25.4,42.6-48.5,37.3-68.7c-3.7-13.9-15.4-25.3-34.9-33.9
		c-11.3-5-21.8-7.5-25.5-8.3c3-15.5,8.3-30.1,15.7-43.5c12.7-2.6,68.9-13.4,130-13.4c61,0,117.3,10.8,130,13.4
		c7.4,13.4,12.8,28.1,15.7,43.6c-4.1,0.9-14.2,3.4-24.9,8.2c-19.5,8.6-31.2,20.1-34.9,33.9c-5.3,20.1,7.1,43.1,37,68.5
		C319.4,300,309.3,311,297.7,320.3L297.7,320.3z M304.4,222.8c4.8-18.3,34.2-28.6,48.1-31.7c0.4,4.5,0.7,9.1,0.7,13.7
		c0,25.5-6.5,49.6-17.9,70.6C311.4,254.8,300.7,236.7,304.4,222.8L304.4,222.8z M304.4,222.8"/>
	<path class="st0" d="M204.8,148.3c-23.4,0-42.4,19-42.4,42.4c0,23.4,19,42.4,42.4,42.4c23.4,0,42.4-19,42.4-42.4
		C247.2,167.3,228.2,148.3,204.8,148.3L204.8,148.3z M204.8,218.9c-15.6,0-28.3-12.7-28.3-28.2c0-15.6,12.7-28.2,28.3-28.2
		c15.6,0,28.2,12.7,28.2,28.2C233,206.3,220.4,218.9,204.8,218.9L204.8,218.9z M204.8,218.9"/>
</g>
</svg>
