<?xml version="1.0" encoding="utf-8"?>
<!-- Generator: Adobe Illustrator 21.0.0, SVG Export Plug-In . SVG Version: 6.00 Build 0)  -->
<svg version="1.1" id="Слой_1" xmlns="http://www.w3.org/2000/svg" xmlns:xlink="http://www.w3.org/1999/xlink" x="0px" y="0px"
	 viewBox="0 0 367.9 410.9" style="enable-background:new 0 0 367.9 410.9;" xml:space="preserve">
<style type="text/css">
	.st0{clip-path:url(#SVGID_2_);fill:#FFFFFF;}
	.st1{fill:#FFFFFF;}
</style>
<g>
	<g>
		<defs>
			<rect id="SVGID_1_" width="367.9" height="410.9"/>
		</defs>
		<use xlink:href="#SVGID_1_"  style="overflow:visible;fill:#FFFFFF;"/>
		<clipPath id="SVGID_2_">
			<use xlink:href="#SVGID_1_"  style="overflow:visible;"/>
		</clipPath>
		<path class="st0" d="M315.8,118.3c28.7,0,52.1-23.4,52.1-52.1V21.1c0-3.8-3.1-6.9-6.9-6.9h-94c-4.8-8.3-13.8-13.9-24-13.9H125
			c-10.3,0-19.2,5.6-24,13.9h-94c-3.8,0-6.9,3.1-6.9,6.9v45.1c0,28.7,23.4,52.1,52.1,52.1h45.1v20.8H6.9c-3.8,0-6.9,3.1-6.9,6.9
			v45.1c0,28.7,23.4,52.1,52.1,52.1h45.1v20.8H6.9c-3.8,0-6.9,3.1-6.9,6.9v45.1c0,28.7,23.4,52.1,52.1,52.1h45.1v13.9
			c0,15.3,12.5,27.8,27.8,27.8h117.9c15.3,0,27.8-12.5,27.8-27.8v-13.9h45.1c28.7,0,52.1-23.4,52.1-52.1v-45.1
			c0-3.8-3.1-6.9-6.9-6.9h-90.2v-20.8h45.1c28.7,0,52.1-23.4,52.1-52.1v-45.1c0-3.8-3.1-6.9-6.9-6.9h-90.2v-20.8H315.8z M270.8,28.1
			L270.8,28.1l83.3,0v38.2c0,21.1-17.2,38.2-38.2,38.2h-45.1V28.1z M97.2,354.4L97.2,354.4H52.1c-21.1,0-38.2-17.1-38.2-38.2V278
			h83.3V354.4z M97.2,229.4L97.2,229.4H52.1c-21.1,0-38.2-17.1-38.2-38.2V153h83.3V229.4z M97.2,28.1L97.2,28.1l0,76.3H52.1
			c-21.1,0-38.2-17.1-38.2-38.2V28.1L97.2,28.1L97.2,28.1z M256.9,111.4v270.7c0,7.7-6.2,13.9-13.9,13.9H125
			c-7.7,0-13.9-6.2-13.9-13.9v-354c0-7.7,6.2-13.9,13.9-13.9h117.9c7.7,0,13.9,6.2,13.9,13.9V111.4z M354.1,278v38.2
			c0,21.1-17.2,38.2-38.2,38.2h-45.1V278H354.1z M354.1,153v38.2c0,21.1-17.2,38.2-38.2,38.2h-45.1V153H354.1z"/>
	</g>
	<path class="st1" d="M184,271.1c-28.7,0-52.1,23.4-52.1,52.1s23.4,52.1,52.1,52.1c28.7,0,52.1-23.4,52.1-52.1
		S212.7,271.1,184,271.1z M184,361.3c-21.1,0-38.2-17.1-38.2-38.2c0-21.1,17.1-38.2,38.2-38.2c21.1,0,38.2,17.1,38.2,38.2
		C222.2,344.2,205,361.3,184,361.3z"/>
	<path class="st1" d="M184,153c-28.7,0-52.1,23.4-52.1,52.1s23.4,52.1,52.1,52.1c28.7,0,52.1-23.4,52.1-52.1S212.7,153,184,153z
		 M184,243.3c-21.1,0-38.2-17.1-38.2-38.2c0-21.1,17.1-38.2,38.2-38.2c21.1,0,38.2,17.1,38.2,38.2C222.2,226.2,205,243.3,184,243.3z
		"/>
	<path class="st1" d="M184,35c-28.7,0-52.1,23.4-52.1,52.1c0,28.7,23.4,52.1,52.1,52.1c28.7,0,52.1-23.4,52.1-52.1
		C236,58.4,212.7,35,184,35z M184,125.3c-21.1,0-38.2-17.1-38.2-38.2c0-21.1,17.1-38.2,38.2-38.2c21.1,0,38.2,17.1,38.2,38.2
		C222.2,108.2,205,125.3,184,125.3z"/>
</g>
</svg>
